<svg width="65" height="64" viewBox="0 0 65 64" fill="none" xmlns="http://www.w3.org/2000/svg">
<g filter="url(#filter0_d_39_1664)">
<circle cx="32.5" cy="24" r="20" fill="#003775"/>
</g>
<path d="M32.5 14.9824C33.2749 14.9824 33.9161 15.5586 34.0176 16.3057L34.0312 16.5137V22.46H39.9844C40.8298 22.46 41.5156 23.1458 41.5156 23.9912C41.5156 24.7662 40.9396 25.4064 40.1924 25.5078L39.9844 25.5225H34.0312V31.4688C34.031 32.314 33.3453 32.999 32.5 32.999C31.7251 32.9989 31.0848 32.4229 30.9834 31.6758L30.9697 31.4688V25.5225H25.0156C24.1703 25.5223 23.4854 24.8366 23.4854 23.9912C23.4854 23.2162 24.0614 22.576 24.8086 22.4746L25.0156 22.46H30.9697V16.5137C30.9698 15.6683 31.6547 14.9825 32.5 14.9824Z" fill="white"/>
<defs>
<filter id="filter0_d_39_1664" x="0.5" y="0" width="64" height="64" filterUnits="userSpaceOnUse" color-interpolation-filters="sRGB">
<feFlood flood-opacity="0" result="BackgroundImageFix"/>
<feColorMatrix in="SourceAlpha" type="matrix" values="0 0 0 0 0 0 0 0 0 0 0 0 0 0 0 0 0 0 127 0" result="hardAlpha"/>
<feOffset dy="8"/>
<feGaussianBlur stdDeviation="6"/>
<feColorMatrix type="matrix" values="0 0 0 0 0 0 0 0 0 0 0 0 0 0 0 0 0 0 0.25 0"/>
<feBlend mode="normal" in2="BackgroundImageFix" result="effect1_dropShadow_39_1664"/>
<feBlend mode="normal" in="SourceGraphic" in2="effect1_dropShadow_39_1664" result="shape"/>
</filter>
</defs>
</svg>
