<svg width="29" height="29" viewBox="0 0 29 29" fill="none" xmlns="http://www.w3.org/2000/svg">
<path d="M25.9791 14.5C25.9791 14.8335 25.7085 15.1042 25.375 15.1042H5.08345L12.5099 22.5306C12.7455 22.7662 12.7455 23.1493 12.5099 23.3849C12.3914 23.5033 12.2368 23.5613 12.0821 23.5613C11.9274 23.5613 11.7728 23.5021 11.6544 23.3849L3.19602 14.9266C3.14044 14.871 3.09584 14.8032 3.06563 14.7295C3.004 14.5821 3.004 14.4156 3.06563 14.2681C3.09584 14.1932 3.14044 14.1267 3.19602 14.0711L11.6544 5.61274C11.89 5.37711 12.2731 5.37711 12.5087 5.61274C12.7443 5.84836 12.7443 6.23144 12.5087 6.46707L5.08227 13.8935H25.375C25.7085 13.8959 25.9791 14.1665 25.9791 14.5Z" fill="#25314C"/>
</svg>
