<svg width="43" height="38" viewBox="0 0 43 38" fill="none" xmlns="http://www.w3.org/2000/svg">
<g clip-path="url(#clip0_12_1435)">
<path d="M18.6731 0H13.0192C12.4839 0.00064125 11.9707 0.213587 11.5921 0.592127C11.2136 0.970667 11.0006 1.48389 11 2.01923V7.67308C11.0006 8.20841 11.2136 8.72164 11.5921 9.10018C11.9707 9.47872 12.4839 9.69166 13.0192 9.69231H18.6731C19.2084 9.69166 19.7216 9.47872 20.1002 9.10018C20.4787 8.72164 20.6917 8.20841 20.6923 7.67308V2.01923C20.6917 1.48389 20.4787 0.970667 20.1002 0.592127C19.7216 0.213587 19.2084 0.00064125 18.6731 0ZM19.8846 7.67308C19.8846 7.9944 19.757 8.30256 19.5298 8.52976C19.3026 8.75697 18.9944 8.88461 18.6731 8.88461H13.0192C12.6979 8.88461 12.3898 8.75697 12.1625 8.52976C11.9353 8.30256 11.8077 7.9944 11.8077 7.67308V2.01923C11.8077 1.69791 11.9353 1.38975 12.1625 1.16254C12.3898 0.935336 12.6979 0.807692 13.0192 0.807692H18.6731C18.9944 0.807692 19.3026 0.935336 19.5298 1.16254C19.757 1.38975 19.8846 1.69791 19.8846 2.01923V7.67308ZM29.9808 0H24.3269C23.7916 0.00064125 23.2784 0.213587 22.8998 0.592127C22.5213 0.970667 22.3083 1.48389 22.3077 2.01923V7.67308C22.3083 8.20841 22.5213 8.72164 22.8998 9.10018C23.2784 9.47872 23.7916 9.69166 24.3269 9.69231H29.9808C30.5161 9.69166 31.0293 9.47872 31.4079 9.10018C31.7864 8.72164 31.9994 8.20841 32 7.67308V2.01923C31.9994 1.48389 31.7864 0.970667 31.4079 0.592127C31.0293 0.213587 30.5161 0.00064125 29.9808 0ZM31.1923 7.67308C31.1923 7.9944 31.0647 8.30256 30.8375 8.52976C30.6102 8.75697 30.3021 8.88461 29.9808 8.88461H24.3269C24.0056 8.88461 23.6974 8.75697 23.4702 8.52976C23.243 8.30256 23.1154 7.9944 23.1154 7.67308V2.01923C23.1154 1.69791 23.243 1.38975 23.4702 1.16254C23.6974 0.935336 24.0056 0.807692 24.3269 0.807692H29.9808C30.3021 0.807692 30.6102 0.935336 30.8375 1.16254C31.0647 1.38975 31.1923 1.69791 31.1923 2.01923V7.67308ZM18.6731 11.3077H13.0192C12.4839 11.3083 11.9707 11.5213 11.5921 11.8998C11.2136 12.2784 11.0006 12.7916 11 13.3269V18.9808C11.0006 19.5161 11.2136 20.0293 11.5921 20.4079C11.9707 20.7864 12.4839 20.9994 13.0192 21H18.6731C19.2084 20.9994 19.7216 20.7864 20.1002 20.4079C20.4787 20.0293 20.6917 19.5161 20.6923 18.9808V13.3269C20.6917 12.7916 20.4787 12.2784 20.1002 11.8998C19.7216 11.5213 19.2084 11.3083 18.6731 11.3077ZM19.8846 18.9808C19.8846 19.3021 19.757 19.6102 19.5298 19.8375C19.3026 20.0647 18.9944 20.1923 18.6731 20.1923H13.0192C12.6979 20.1923 12.3898 20.0647 12.1625 19.8375C11.9353 19.6102 11.8077 19.3021 11.8077 18.9808V13.3269C11.8077 13.0056 11.9353 12.6974 12.1625 12.4702C12.3898 12.243 12.6979 12.1154 13.0192 12.1154H18.6731C18.9944 12.1154 19.3026 12.243 19.5298 12.4702C19.757 12.6974 19.8846 13.0056 19.8846 13.3269V18.9808ZM27.1538 11.3077C26.1954 11.3077 25.2584 11.5919 24.4615 12.1244C23.6645 12.6569 23.0434 13.4138 22.6766 14.2993C22.3098 15.1848 22.2138 16.1592 22.4008 17.0993C22.5878 18.0393 23.0493 18.9028 23.7271 19.5806C24.4048 20.2583 25.2683 20.7199 26.2084 20.9069C27.1485 21.0939 28.1229 20.9979 29.0084 20.6311C29.8939 20.2643 30.6508 19.6432 31.1833 18.8462C31.7158 18.0493 32 17.1123 32 16.1538C31.9986 14.869 31.4876 13.6372 30.5791 12.7286C29.6705 11.8201 28.4387 11.3091 27.1538 11.3077ZM27.1538 20.1923C26.3551 20.1923 25.5743 19.9555 24.9102 19.5117C24.2461 19.0679 23.7285 18.4372 23.4228 17.6993C23.1171 16.9614 23.0372 16.1494 23.193 15.366C23.3488 14.5826 23.7334 13.863 24.2982 13.2982C24.863 12.7334 25.5826 12.3488 26.366 12.193C27.1494 12.0372 27.9614 12.1171 28.6993 12.4228C29.4372 12.7285 30.068 13.2461 30.5117 13.9102C30.9555 14.5743 31.1923 15.3551 31.1923 16.1538C31.1911 17.2245 30.7653 18.2511 30.0082 19.0082C29.2511 19.7653 28.2246 20.1911 27.1538 20.1923Z" fill="#6E6D6F"/>
</g>
<path d="M4.5 35.1C4.00667 35.1 3.54667 35.01 3.12 34.83C2.7 34.65 2.33333 34.3967 2.02 34.07C1.70667 33.7433 1.46333 33.3667 1.29 32.94C1.12333 32.5067 1.04 32.0433 1.04 31.55C1.04 31.0567 1.12333 30.5967 1.29 30.17C1.46333 29.7367 1.70333 29.36 2.01 29.04C2.32333 28.72 2.69 28.47 3.11 28.29C3.53 28.11 3.98333 28.02 4.47 28.02C4.99667 28.02 5.46667 28.1133 5.88 28.3C6.3 28.4867 6.66667 28.7433 6.98 29.07L6.48 29.57C6.24 29.3033 5.95 29.0967 5.61 28.95C5.27 28.7967 4.89 28.72 4.47 28.72C4.08333 28.72 3.72667 28.79 3.4 28.93C3.08 29.07 2.79667 29.27 2.55 29.53C2.31 29.7833 2.12333 30.0833 1.99 30.43C1.86333 30.77 1.8 31.1433 1.8 31.55C1.8 31.9567 1.86667 32.3333 2 32.68C2.13333 33.0267 2.32 33.33 2.56 33.59C2.8 33.8433 3.08333 34.04 3.41 34.18C3.73667 34.32 4.09333 34.39 4.48 34.39C4.92 34.39 5.31 34.3133 5.65 34.16C5.99667 34.0067 6.29 33.7967 6.53 33.53L7.03 34.04C6.72333 34.3667 6.35667 34.6267 5.93 34.82C5.50333 35.0067 5.02667 35.1 4.5 35.1ZM9.99805 35.1C9.55138 35.1 9.15138 34.9933 8.79805 34.78C8.44471 34.56 8.16471 34.2667 7.95805 33.9C7.75805 33.5333 7.65805 33.12 7.65805 32.66C7.65805 32.1933 7.75805 31.7767 7.95805 31.41C8.16471 31.0367 8.44471 30.7433 8.79805 30.53C9.15138 30.31 9.54805 30.2 9.98805 30.2C10.348 30.2 10.668 30.2733 10.948 30.42C11.2347 30.56 11.4647 30.76 11.638 31.02C11.818 31.2733 11.928 31.57 11.968 31.91V33.38C11.928 33.72 11.818 34.02 11.638 34.28C11.4647 34.54 11.2347 34.7433 10.948 34.89C10.668 35.03 10.3514 35.1 9.99805 35.1ZM10.108 34.43C10.5947 34.43 10.9847 34.2667 11.278 33.94C11.578 33.6133 11.728 33.1833 11.728 32.65C11.728 32.2967 11.658 31.9867 11.518 31.72C11.3847 31.4467 11.1947 31.2367 10.948 31.09C10.708 30.9367 10.4247 30.86 10.098 30.86C9.76471 30.86 9.46805 30.9367 9.20805 31.09C8.95471 31.2433 8.75138 31.4567 8.59805 31.73C8.45138 31.9967 8.37805 32.3033 8.37805 32.65C8.37805 32.9967 8.45138 33.3033 8.59805 33.57C8.75138 33.8367 8.95805 34.0467 9.21805 34.2C9.47805 34.3533 9.77471 34.43 10.108 34.43ZM11.688 35V33.74L11.828 32.58L11.688 31.45V30.3H12.388V35H11.688ZM14.4986 35V28.32H15.1986V35H14.4986ZM13.3086 30.93V30.3H16.3786V30.93H13.3086ZM19.3468 35.1C18.8735 35.1 18.4501 34.9933 18.0768 34.78C17.7035 34.5667 17.4068 34.2733 17.1868 33.9C16.9735 33.5267 16.8668 33.1067 16.8668 32.64C16.8668 32.18 16.9735 31.7667 17.1868 31.4C17.4001 31.0267 17.6901 30.7333 18.0568 30.52C18.4235 30.3067 18.8335 30.2 19.2868 30.2C19.7135 30.2 20.0901 30.2967 20.4168 30.49C20.7501 30.6833 21.0101 30.9533 21.1968 31.3C21.3901 31.64 21.4868 32.0333 21.4868 32.48C21.4868 32.5333 21.4835 32.5967 21.4768 32.67C21.4701 32.7367 21.4568 32.8167 21.4368 32.91H17.3668V32.31H21.0568L20.8068 32.53C20.8135 32.1833 20.7535 31.8867 20.6268 31.64C20.5068 31.3867 20.3301 31.1933 20.0968 31.06C19.8701 30.92 19.5935 30.85 19.2668 30.85C18.9268 30.85 18.6301 30.9233 18.3768 31.07C18.1235 31.2167 17.9235 31.4233 17.7768 31.69C17.6368 31.95 17.5668 32.26 17.5668 32.62C17.5668 32.98 17.6401 33.2967 17.7868 33.57C17.9401 33.8433 18.1501 34.0567 18.4168 34.21C18.6901 34.3633 19.0035 34.44 19.3568 34.44C19.6435 34.44 19.9068 34.39 20.1468 34.29C20.3868 34.1833 20.5901 34.0267 20.7568 33.82L21.2068 34.28C20.9868 34.54 20.7135 34.7433 20.3868 34.89C20.0668 35.03 19.7201 35.1 19.3468 35.1ZM24.4977 37.08C24.0243 37.08 23.601 36.99 23.2277 36.81C22.861 36.6367 22.5643 36.39 22.3377 36.07L22.7977 35.61C22.9843 35.8633 23.221 36.06 23.5077 36.2C23.7943 36.34 24.131 36.41 24.5177 36.41C25.051 36.41 25.4743 36.2667 25.7877 35.98C26.1077 35.6933 26.2677 35.3033 26.2677 34.81V33.64L26.4077 32.57L26.2677 31.51V30.3H26.9677V34.81C26.9677 35.2633 26.8643 35.66 26.6577 36C26.451 36.34 26.161 36.6033 25.7877 36.79C25.421 36.9833 24.991 37.08 24.4977 37.08ZM24.5477 34.95C24.1143 34.95 23.7243 34.8467 23.3777 34.64C23.031 34.4333 22.7577 34.15 22.5577 33.79C22.3577 33.43 22.2577 33.0233 22.2577 32.57C22.2577 32.1167 22.3543 31.7133 22.5477 31.36C22.7477 31 23.021 30.7167 23.3677 30.51C23.7143 30.3033 24.1043 30.2 24.5377 30.2C24.9043 30.2 25.231 30.27 25.5177 30.41C25.811 30.55 26.0443 30.75 26.2177 31.01C26.3977 31.2633 26.5077 31.5633 26.5477 31.91V33.24C26.5077 33.58 26.3977 33.88 26.2177 34.14C26.0377 34.3933 25.8043 34.5933 25.5177 34.74C25.231 34.88 24.9077 34.95 24.5477 34.95ZM24.6777 34.28C25.0043 34.28 25.2877 34.21 25.5277 34.07C25.7743 33.93 25.9643 33.7333 26.0977 33.48C26.2377 33.22 26.3077 32.9167 26.3077 32.57C26.3077 32.23 26.2377 31.9333 26.0977 31.68C25.9643 31.4267 25.7743 31.2267 25.5277 31.08C25.281 30.9333 24.9943 30.86 24.6677 30.86C24.341 30.86 24.0477 30.9333 23.7877 31.08C23.5343 31.2267 23.3343 31.4267 23.1877 31.68C23.0477 31.9333 22.9777 32.23 22.9777 32.57C22.9777 32.9033 23.051 33.2 23.1977 33.46C23.3443 33.72 23.5443 33.9233 23.7977 34.07C24.051 34.21 24.3443 34.28 24.6777 34.28ZM30.508 35.1C30.0546 35.1 29.6413 34.99 29.268 34.77C28.9013 34.55 28.608 34.2533 28.388 33.88C28.1746 33.5067 28.068 33.09 28.068 32.63C28.068 32.1767 28.1746 31.7667 28.388 31.4C28.608 31.0333 28.9013 30.7433 29.268 30.53C29.6413 30.31 30.0546 30.2 30.508 30.2C30.968 30.2 31.3813 30.3067 31.748 30.52C32.1146 30.7333 32.4046 31.0267 32.618 31.4C32.838 31.7667 32.948 32.1767 32.948 32.63C32.948 33.0967 32.838 33.5167 32.618 33.89C32.4046 34.2567 32.1146 34.55 31.748 34.77C31.3813 34.99 30.968 35.1 30.508 35.1ZM30.508 34.42C30.8413 34.42 31.1346 34.3433 31.388 34.19C31.648 34.0367 31.8513 33.8233 31.998 33.55C32.1513 33.2767 32.228 32.97 32.228 32.63C32.228 32.29 32.1513 31.99 31.998 31.73C31.8513 31.4633 31.648 31.2533 31.388 31.1C31.1346 30.9467 30.8413 30.87 30.508 30.87C30.1813 30.87 29.888 30.9467 29.628 31.1C29.368 31.2533 29.1646 31.4633 29.018 31.73C28.8713 31.99 28.798 32.29 28.798 32.63C28.798 32.9767 28.8713 33.2867 29.018 33.56C29.1646 33.8267 29.368 34.0367 29.628 34.19C29.888 34.3433 30.1813 34.42 30.508 34.42ZM34.0616 35V30.3H34.7616V35H34.0616ZM34.7616 32.26L34.4716 32.13C34.4716 31.5367 34.6149 31.0667 34.9016 30.72C35.1949 30.3733 35.5949 30.2 36.1016 30.2C36.3349 30.2 36.5482 30.2433 36.7416 30.33C36.9349 30.41 37.1149 30.54 37.2816 30.72L36.8216 31.21C36.7082 31.0833 36.5816 30.9933 36.4416 30.94C36.3082 30.8867 36.1549 30.86 35.9816 30.86C35.6216 30.86 35.3282 30.98 35.1016 31.22C34.8749 31.4533 34.7616 31.8 34.7616 32.26ZM39.489 35.02L37.429 30.3H38.199L39.859 34.24H39.569L41.319 30.3H42.099L39.889 35.02H39.489ZM38.209 36.98L39.499 34.31L39.889 35.02L38.979 36.98H38.209Z" fill="#6E6D6F"/>
<defs>
<clipPath id="clip0_12_1435">
<rect width="21" height="21" fill="white" transform="translate(11)"/>
</clipPath>
</defs>
</svg>
