<svg width="66" height="66" viewBox="0 0 66 66" fill="none" xmlns="http://www.w3.org/2000/svg">
<circle cx="33" cy="33" r="33" fill="#7AC143" fill-opacity="0.09"/>
<circle cx="33" cy="33" r="22" fill="#7AC143"/>
<path d="M44.0332 25.0317H39.6702C38.345 25.0317 38.2396 24.7154 37.9258 23.7752L37.6769 23.031C37.3435 22.0282 36.4081 21.354 35.3514 21.354H30.6464C29.5896 21.354 28.6543 22.0282 28.3208 23.031L28.0732 23.7752C27.7594 24.7154 27.6539 25.0317 26.3287 25.0317H21.967C21.6286 25.0317 21.354 25.3063 21.354 25.6447C21.354 25.983 21.6286 26.2576 21.967 26.2576H23.845L24.8037 40.6399C24.9741 43.1861 26.5334 44.6462 29.0846 44.6462H36.9144C39.4655 44.6462 41.0261 43.1861 41.1953 40.6399L42.1539 26.2576H44.0332C44.3716 26.2576 44.6462 25.983 44.6462 25.6447C44.6462 25.3063 44.3716 25.0317 44.0332 25.0317ZM29.4842 23.4184C29.6522 22.917 30.1192 22.5799 30.6476 22.5799H35.3526C35.881 22.5799 36.348 22.9158 36.5148 23.4184L36.7636 24.1625C36.8629 24.4592 36.9683 24.7559 37.113 25.0317H28.8884C29.0331 24.7547 29.1385 24.4592 29.2378 24.1625L29.4842 23.4184ZM39.973 40.559C39.8468 42.4579 38.8182 43.4203 36.9156 43.4203H29.0858C27.1832 43.4203 26.1546 42.4579 26.0284 40.559L25.0746 26.2576H26.3299C26.482 26.2576 26.6058 26.2405 26.7406 26.2319C26.7835 26.2417 26.8252 26.2576 26.8706 26.2576H39.1296C39.1762 26.2576 39.2167 26.2405 39.2596 26.2319C39.3944 26.2417 39.5182 26.2576 39.6702 26.2576H40.9256L39.973 40.559ZM36.0648 31.7742V37.9037C36.0648 38.2421 35.7902 38.5167 35.4519 38.5167C35.1135 38.5167 34.8389 38.2421 34.8389 37.9037V31.7742C34.8389 31.4358 35.1135 31.1612 35.4519 31.1612C35.7902 31.1612 36.0648 31.4358 36.0648 31.7742ZM31.1612 31.7742V37.9037C31.1612 38.2421 30.8866 38.5167 30.5483 38.5167C30.2099 38.5167 29.9353 38.2421 29.9353 37.9037V31.7742C29.9353 31.4358 30.2099 31.1612 30.5483 31.1612C30.8866 31.1612 31.1612 31.4358 31.1612 31.7742Z" fill="white"/>
</svg>
