<svg width="20" height="20" viewBox="0 0 20 20" fill="none" xmlns="http://www.w3.org/2000/svg">
<path d="M6.646 11.354C6.451 11.159 6.451 10.842 6.646 10.647C6.841 10.452 7.15803 10.452 7.35303 10.647L9.49902 12.793V1C9.49902 0.724 9.72302 0.5 9.99902 0.5C10.275 0.5 10.499 0.724 10.499 1V12.793L12.645 10.647C12.84 10.452 13.1571 10.452 13.3521 10.647C13.5471 10.842 13.5471 11.159 13.3521 11.354L10.3521 14.354C10.3061 14.4 10.25 14.437 10.189 14.462C10.128 14.487 10.063 14.501 9.99805 14.501C9.93305 14.501 9.86788 14.488 9.80688 14.462C9.74488 14.437 9.69004 14.4 9.64404 14.354L6.646 11.354ZM16 7.5C15.724 7.5 15.5 7.724 15.5 8C15.5 8.276 15.724 8.5 16 8.5C17.729 8.5 18.5 9.271 18.5 11V16C18.5 17.729 17.729 18.5 16 18.5H4C2.271 18.5 1.5 17.729 1.5 16V11C1.5 9.271 2.271 8.5 4 8.5C4.276 8.5 4.5 8.276 4.5 8C4.5 7.724 4.276 7.5 4 7.5C1.71 7.5 0.5 8.71 0.5 11V16C0.5 18.29 1.71 19.5 4 19.5H16C18.29 19.5 19.5 18.29 19.5 16V11C19.5 8.71 18.29 7.5 16 7.5Z" fill="#25314C"/>
</svg>
