<svg width="24" height="25" viewBox="0 0 24 25" fill="none" xmlns="http://www.w3.org/2000/svg">
<path d="M6 4C4.07 4 2.5 5.57 2.5 7.5C2.5 9.43 4.07 11 6 11C7.93 11 9.5 9.43 9.5 7.5C9.5 5.57 7.93 4 6 4ZM6 10C4.622 10 3.5 8.878 3.5 7.5C3.5 6.122 4.622 5 6 5C7.378 5 8.5 6.122 8.5 7.5C8.5 8.878 7.378 10 6 10ZM18 14C16.07 14 14.5 15.57 14.5 17.5C14.5 19.43 16.07 21 18 21C19.93 21 21.5 19.43 21.5 17.5C21.5 15.57 19.93 14 18 14ZM18 20C16.622 20 15.5 18.878 15.5 17.5C15.5 16.122 16.622 15 18 15C19.378 15 20.5 16.122 20.5 17.5C20.5 18.878 19.378 20 18 20ZM14.5 7.5C14.5 7.224 14.724 7 15 7H21C21.276 7 21.5 7.224 21.5 7.5C21.5 7.776 21.276 8 21 8H15C14.724 8 14.5 7.776 14.5 7.5ZM9.5 17.5C9.5 17.776 9.276 18 9 18H3C2.724 18 2.5 17.776 2.5 17.5C2.5 17.224 2.724 17 3 17H9C9.276 17 9.5 17.224 9.5 17.5Z" fill="#25314C"/>
</svg>
