<svg width="33" height="41" viewBox="0 0 33 41" fill="none" xmlns="http://www.w3.org/2000/svg">
<path d="M24.596 5.34998C23.61 4.14798 22.187 3.508 20.481 3.5C20.474 3.5 20.466 3.5 20.459 3.5C18.478 3.5 17.183 4.73703 16.501 5.84003C15.819 4.73703 14.524 3.5 12.543 3.5C12.535 3.5 12.527 3.5 12.521 3.5C10.817 3.508 9.39501 4.14801 8.40801 5.35101C7.17701 6.85201 6.71701 9.17397 7.17901 11.561C8.38801 17.792 15.972 21.309 16.294 21.456C16.359 21.486 16.431 21.501 16.501 21.501C16.571 21.501 16.6431 21.486 16.7081 21.456C17.0301 21.309 24.6141 17.793 25.8221 11.561C26.2851 9.17197 25.827 6.85098 24.596 5.34998ZM24.839 11.37C23.836 16.548 17.7111 19.84 16.5001 20.444C15.2891 19.84 9.16408 16.548 8.16008 11.37C7.75308 9.272 8.1341 7.25899 9.1801 5.98499C9.9831 5.00599 11.1081 4.507 12.5241 4.5C12.5311 4.5 12.537 4.5 12.544 4.5C15.1 4.5 15.99 7.03897 16.027 7.14697C16.164 7.55297 16.838 7.55297 16.974 7.14697C17.011 7.03897 17.9021 4.5 20.4571 4.5C20.4641 4.5 20.4701 4.5 20.4771 4.5C21.8951 4.507 23.021 5.00599 23.823 5.98499C24.8671 7.25699 25.247 9.271 24.839 11.37Z" fill="#6E6D6F"/>
<path d="M0.88 39V32.12H1.61V39H0.88ZM1.36 39V38.33H5.15V39H1.36ZM6.24711 39V34.3H6.95711V39H6.24711ZM6.59711 33.28C6.46378 33.28 6.35044 33.2333 6.25711 33.14C6.16378 33.04 6.11711 32.9233 6.11711 32.79C6.11711 32.65 6.16378 32.5333 6.25711 32.44C6.35044 32.3467 6.46378 32.3 6.59711 32.3C6.74378 32.3 6.86044 32.3467 6.94711 32.44C7.04044 32.5333 7.08711 32.65 7.08711 32.79C7.08711 32.9233 7.04044 33.04 6.94711 33.14C6.86044 33.2333 6.74378 33.28 6.59711 33.28ZM10.806 39.1C10.446 39.1 10.1227 39.0267 9.83602 38.88C9.54935 38.7333 9.31268 38.5333 9.12602 38.28C8.94602 38.02 8.83602 37.72 8.79602 37.38V35.91C8.83602 35.5633 8.94935 35.2633 9.13602 35.01C9.32268 34.75 9.55935 34.55 9.84602 34.41C10.1393 34.27 10.4593 34.2 10.806 34.2C11.2393 34.2 11.6293 34.31 11.976 34.53C12.3227 34.7433 12.596 35.0367 12.796 35.41C13.0027 35.7767 13.106 36.1933 13.106 36.66C13.106 37.12 13.006 37.5333 12.806 37.9C12.606 38.2667 12.3293 38.56 11.976 38.78C11.6293 38.9933 11.2393 39.1 10.806 39.1ZM8.37602 39V31.92H9.07602V35.45L8.93602 36.58L9.07602 37.74V39H8.37602ZM10.686 38.43C11.0193 38.43 11.3127 38.3567 11.566 38.21C11.8193 38.0567 12.016 37.8467 12.156 37.58C12.3027 37.3067 12.376 36.9967 12.376 36.65C12.376 36.2967 12.3027 35.9867 12.156 35.72C12.016 35.4533 11.8193 35.2433 11.566 35.09C11.3127 34.9367 11.0227 34.86 10.696 34.86C10.3693 34.86 10.0793 34.9367 9.82602 35.09C9.57935 35.2433 9.38602 35.4533 9.24602 35.72C9.10602 35.9867 9.03602 36.2967 9.03602 36.65C9.03602 36.9967 9.10602 37.3067 9.24602 37.58C9.38602 37.8467 9.57935 38.0567 9.82602 38.21C10.0727 38.3567 10.3593 38.43 10.686 38.43ZM14.2256 39V34.3H14.9256V39H14.2256ZM14.9256 36.26L14.6356 36.13C14.6356 35.5367 14.779 35.0667 15.0656 34.72C15.359 34.3733 15.759 34.2 16.2656 34.2C16.499 34.2 16.7123 34.2433 16.9056 34.33C17.099 34.41 17.279 34.54 17.4456 34.72L16.9856 35.21C16.8723 35.0833 16.7456 34.9933 16.6056 34.94C16.4723 34.8867 16.319 34.86 16.1456 34.86C15.7856 34.86 15.4923 34.98 15.2656 35.22C15.039 35.4533 14.9256 35.8 14.9256 36.26ZM20.0645 39.1C19.6178 39.1 19.2178 38.9933 18.8645 38.78C18.5111 38.56 18.2311 38.2667 18.0245 37.9C17.8245 37.5333 17.7245 37.12 17.7245 36.66C17.7245 36.1933 17.8245 35.7767 18.0245 35.41C18.2311 35.0367 18.5111 34.7433 18.8645 34.53C19.2178 34.31 19.6145 34.2 20.0545 34.2C20.4145 34.2 20.7345 34.2733 21.0145 34.42C21.3011 34.56 21.5311 34.76 21.7045 35.02C21.8845 35.2733 21.9945 35.57 22.0345 35.91V37.38C21.9945 37.72 21.8845 38.02 21.7045 38.28C21.5311 38.54 21.3011 38.7433 21.0145 38.89C20.7345 39.03 20.4178 39.1 20.0645 39.1ZM20.1745 38.43C20.6611 38.43 21.0511 38.2667 21.3445 37.94C21.6445 37.6133 21.7945 37.1833 21.7945 36.65C21.7945 36.2967 21.7245 35.9867 21.5845 35.72C21.4511 35.4467 21.2611 35.2367 21.0145 35.09C20.7745 34.9367 20.4911 34.86 20.1645 34.86C19.8311 34.86 19.5345 34.9367 19.2745 35.09C19.0211 35.2433 18.8178 35.4567 18.6645 35.73C18.5178 35.9967 18.4445 36.3033 18.4445 36.65C18.4445 36.9967 18.5178 37.3033 18.6645 37.57C18.8178 37.8367 19.0245 38.0467 19.2845 38.2C19.5445 38.3533 19.8411 38.43 20.1745 38.43ZM21.7545 39V37.74L21.8945 36.58L21.7545 35.45V34.3H22.4545V39H21.7545ZM23.8741 39V34.3H24.5741V39H23.8741ZM24.5741 36.26L24.2841 36.13C24.2841 35.5367 24.4274 35.0667 24.7141 34.72C25.0074 34.3733 25.4074 34.2 25.9141 34.2C26.1474 34.2 26.3607 34.2433 26.5541 34.33C26.7474 34.41 26.9274 34.54 27.0941 34.72L26.6341 35.21C26.5207 35.0833 26.3941 34.9933 26.2541 34.94C26.1207 34.8867 25.9674 34.86 25.7941 34.86C25.4341 34.86 25.1407 34.98 24.9141 35.22C24.6874 35.4533 24.5741 35.8 24.5741 36.26ZM29.3015 39.02L27.2415 34.3H28.0115L29.6715 38.24H29.3815L31.1315 34.3H31.9115L29.7015 39.02H29.3015ZM28.0215 40.98L29.3115 38.31L29.7015 39.02L28.7915 40.98H28.0215Z" fill="#6E6D6F"/>
</svg>
