<svg width="33" height="40" viewBox="0 0 33 40" fill="none" xmlns="http://www.w3.org/2000/svg">
<g clip-path="url(#clip0_39_1765)">
<path d="M16.5 20.5137C16.3887 20.5137 16.2775 20.4849 16.1778 20.4273C16.0695 20.3649 13.4969 18.8712 10.8874 16.6206C9.34082 15.2867 8.10625 13.9637 7.21808 12.6884C6.06876 11.0381 5.49079 9.45077 5.50011 7.97037C5.51103 6.24776 6.12801 4.62775 7.23755 3.40873C8.36582 2.16917 9.87153 1.48657 11.4774 1.48657C13.5355 1.48657 15.4171 2.63942 16.5 4.46568C17.583 2.63946 19.4646 1.48657 21.5227 1.48657C23.0398 1.48657 24.4873 2.10249 25.5987 3.22087C26.8183 4.44819 27.5112 6.18232 27.4999 7.97854C27.4905 9.45636 26.9017 11.0413 25.7499 12.6893C24.859 13.9639 23.6261 15.2863 22.0855 16.6198C19.4856 18.8702 16.9315 20.3639 16.824 20.4263C16.7239 20.4845 16.6119 20.5137 16.5 20.5137Z" fill="#151515"/>
</g>
<path d="M0.82 38V31.06H1.76V38H0.82ZM1.46 38V37.14H5.18V38H1.46ZM6.18758 38V33.25H7.08758V38H6.18758ZM6.63758 32.3C6.47091 32.3 6.33424 32.2467 6.22758 32.14C6.12091 32.0267 6.06758 31.8867 6.06758 31.72C6.06758 31.56 6.12091 31.4267 6.22758 31.32C6.33424 31.2067 6.47091 31.15 6.63758 31.15C6.80424 31.15 6.94091 31.2067 7.04758 31.32C7.15424 31.4267 7.20758 31.56 7.20758 31.72C7.20758 31.8867 7.15424 32.0267 7.04758 32.14C6.94091 32.2467 6.80424 32.3 6.63758 32.3ZM10.9139 38.1C10.5539 38.1 10.2272 38.0267 9.93391 37.88C9.64724 37.7267 9.41724 37.5167 9.24391 37.25C9.07057 36.9833 8.97391 36.68 8.95391 36.34V34.91C8.97391 34.5633 9.07057 34.26 9.24391 34C9.42391 33.7333 9.65724 33.5267 9.94391 33.38C10.2372 33.2267 10.5606 33.15 10.9139 33.15C11.3472 33.15 11.7372 33.26 12.0839 33.48C12.4372 33.7 12.7139 33.9967 12.9139 34.37C13.1139 34.7433 13.2139 35.1633 13.2139 35.63C13.2139 36.0967 13.1139 36.5167 12.9139 36.89C12.7139 37.2633 12.4372 37.56 12.0839 37.78C11.7372 37.9933 11.3472 38.1 10.9139 38.1ZM8.41391 38V30.86H9.31391V34.41L9.14391 35.56L9.31391 36.72V38H8.41391ZM10.7639 37.25C11.0639 37.25 11.3272 37.18 11.5539 37.04C11.7806 36.9 11.9606 36.71 12.0939 36.47C12.2272 36.2233 12.2939 35.94 12.2939 35.62C12.2939 35.3067 12.2272 35.0267 12.0939 34.78C11.9606 34.5333 11.7806 34.3433 11.5539 34.21C11.3272 34.07 11.0672 34 10.7739 34C10.4739 34 10.2106 34.07 9.98391 34.21C9.75724 34.3433 9.58057 34.5333 9.45391 34.78C9.32724 35.0267 9.26391 35.31 9.26391 35.63C9.26391 35.9433 9.32391 36.2233 9.44391 36.47C9.57057 36.71 9.74724 36.9 9.97391 37.04C10.2072 37.18 10.4706 37.25 10.7639 37.25ZM14.2342 38V33.25H15.1342V38H14.2342ZM15.1342 35.29L14.7942 35.14C14.7942 34.5333 14.9342 34.05 15.2142 33.69C15.4942 33.33 15.8976 33.15 16.4242 33.15C16.6642 33.15 16.8809 33.1933 17.0742 33.28C17.2676 33.36 17.4476 33.4967 17.6142 33.69L17.0242 34.3C16.9242 34.1933 16.8142 34.1167 16.6942 34.07C16.5742 34.0233 16.4342 34 16.2742 34C15.9409 34 15.6676 34.1067 15.4542 34.32C15.2409 34.5333 15.1342 34.8567 15.1342 35.29ZM20.1116 38.1C19.6783 38.1 19.285 37.9933 18.9316 37.78C18.5783 37.56 18.2983 37.2633 18.0916 36.89C17.8916 36.5167 17.7916 36.0967 17.7916 35.63C17.7916 35.1633 17.8916 34.7433 18.0916 34.37C18.2983 33.9967 18.575 33.7 18.9216 33.48C19.275 33.26 19.6716 33.15 20.1116 33.15C20.4716 33.15 20.7916 33.2267 21.0716 33.38C21.3583 33.5267 21.5883 33.7333 21.7616 34C21.935 34.26 22.0316 34.5633 22.0516 34.91V36.34C22.0316 36.68 21.935 36.9833 21.7616 37.25C21.595 37.5167 21.3683 37.7267 21.0816 37.88C20.8016 38.0267 20.4783 38.1 20.1116 38.1ZM20.2616 37.25C20.7083 37.25 21.0683 37.1 21.3416 36.8C21.615 36.4933 21.7516 36.1033 21.7516 35.63C21.7516 35.3033 21.6883 35.02 21.5616 34.78C21.4416 34.5333 21.2683 34.3433 21.0416 34.21C20.815 34.07 20.5516 34 20.2516 34C19.9516 34 19.685 34.07 19.4516 34.21C19.225 34.35 19.045 34.5433 18.9116 34.79C18.785 35.03 18.7216 35.3067 18.7216 35.62C18.7216 35.94 18.785 36.2233 18.9116 36.47C19.045 36.71 19.2283 36.9 19.4616 37.04C19.695 37.18 19.9616 37.25 20.2616 37.25ZM21.6916 38V36.72L21.8616 35.56L21.6916 34.41V33.25H22.6016V38H21.6916ZM23.912 38V33.25H24.812V38H23.912ZM24.812 35.29L24.472 35.14C24.472 34.5333 24.612 34.05 24.892 33.69C25.172 33.33 25.5753 33.15 26.102 33.15C26.342 33.15 26.5586 33.1933 26.752 33.28C26.9453 33.36 27.1253 33.4967 27.292 33.69L26.702 34.3C26.602 34.1933 26.492 34.1167 26.372 34.07C26.252 34.0233 26.112 34 25.952 34C25.6186 34 25.3453 34.1067 25.132 34.32C24.9186 34.5333 24.812 34.8567 24.812 35.29ZM29.3977 38.04L27.3377 33.25H28.3377L29.8677 37H29.5477L31.1577 33.25H32.1577L29.9377 38.04H29.3977ZM28.0377 39.99L29.4377 37.12L29.9377 38.04L29.0377 39.99H28.0377Z" fill="#151515"/>
<defs>
<clipPath id="clip0_39_1765">
<rect width="22" height="22" fill="white" transform="translate(5.5)"/>
</clipPath>
</defs>
</svg>
