<svg width="43" height="39" viewBox="0 0 43 39" fill="none" xmlns="http://www.w3.org/2000/svg">
<g clip-path="url(#clip0_39_1765)">
<path d="M22 20.5137C21.8887 20.5137 21.7775 20.4849 21.6778 20.4273C21.5695 20.3649 18.9969 18.8712 16.3874 16.6206C14.8408 15.2867 13.6062 13.9637 12.7181 12.6884C11.5688 11.0381 10.9908 9.45077 11.0001 7.97037C11.011 6.24776 11.628 4.62775 12.7375 3.40873C13.8658 2.16917 15.3715 1.48657 16.9774 1.48657C19.0355 1.48657 20.9171 2.63942 22 4.46568C23.083 2.63946 24.9646 1.48657 27.0227 1.48657C28.5398 1.48657 29.9873 2.10249 31.0987 3.22087C32.3183 4.44819 33.0112 6.18232 32.9999 7.97854C32.9905 9.45636 32.4017 11.0413 31.2499 12.6893C30.359 13.9639 29.1261 15.2863 27.5855 16.6198C24.9856 18.8702 22.4315 20.3639 22.324 20.4263C22.2239 20.4845 22.1119 20.5137 22 20.5137Z" fill="#151515"/>
</g>
<path d="M1.32 38V31.06H2.26V38H1.32ZM1.96 34.95V34.09H5.58V34.95H1.96ZM1.96 31.92V31.06H5.75V31.92H1.96ZM8.64875 38.1C8.21542 38.1 7.82208 37.9933 7.46875 37.78C7.11542 37.56 6.83542 37.2633 6.62875 36.89C6.42875 36.5167 6.32875 36.0967 6.32875 35.63C6.32875 35.1633 6.42875 34.7433 6.62875 34.37C6.83542 33.9967 7.11208 33.7 7.45875 33.48C7.81208 33.26 8.20875 33.15 8.64875 33.15C9.00875 33.15 9.32875 33.2267 9.60875 33.38C9.89542 33.5267 10.1254 33.7333 10.2988 34C10.4721 34.26 10.5688 34.5633 10.5888 34.91V36.34C10.5688 36.68 10.4721 36.9833 10.2988 37.25C10.1321 37.5167 9.90542 37.7267 9.61875 37.88C9.33875 38.0267 9.01542 38.1 8.64875 38.1ZM8.79875 37.25C9.24542 37.25 9.60542 37.1 9.87875 36.8C10.1521 36.4933 10.2888 36.1033 10.2888 35.63C10.2888 35.3033 10.2254 35.02 10.0988 34.78C9.97875 34.5333 9.80542 34.3433 9.57875 34.21C9.35208 34.07 9.08875 34 8.78875 34C8.48875 34 8.22208 34.07 7.98875 34.21C7.76208 34.35 7.58208 34.5433 7.44875 34.79C7.32208 35.03 7.25875 35.3067 7.25875 35.62C7.25875 35.94 7.32208 36.2233 7.44875 36.47C7.58208 36.71 7.76542 36.9 7.99875 37.04C8.23208 37.18 8.49875 37.25 8.79875 37.25ZM10.2288 38V36.72L10.3988 35.56L10.2288 34.41V33.25H11.1388V38H10.2288ZM14.0791 38L11.8991 33.25H12.8991L14.6491 37.26H14.0691L15.8291 33.25H16.7891L14.6091 38H14.0791ZM19.5409 38.1C19.0743 38.1 18.6543 37.99 18.2809 37.77C17.9076 37.55 17.6109 37.2533 17.3909 36.88C17.1709 36.5 17.0609 36.0767 17.0609 35.61C17.0609 35.15 17.1709 34.7367 17.3909 34.37C17.6109 33.9967 17.9076 33.7 18.2809 33.48C18.6543 33.26 19.0743 33.15 19.5409 33.15C20.0009 33.15 20.4176 33.26 20.7909 33.48C21.1709 33.6933 21.4709 33.9867 21.6909 34.36C21.9109 34.7333 22.0209 35.15 22.0209 35.61C22.0209 36.0767 21.9109 36.5 21.6909 36.88C21.4709 37.2533 21.1709 37.55 20.7909 37.77C20.4176 37.99 20.0009 38.1 19.5409 38.1ZM19.5409 37.23C19.8409 37.23 20.1076 37.16 20.3409 37.02C20.5743 36.88 20.7576 36.69 20.8909 36.45C21.0243 36.2033 21.0909 35.9233 21.0909 35.61C21.0909 35.3033 21.0209 35.03 20.8809 34.79C20.7476 34.55 20.5643 34.3633 20.3309 34.23C20.1043 34.09 19.8409 34.02 19.5409 34.02C19.2409 34.02 18.9743 34.09 18.7409 34.23C18.5076 34.3633 18.3243 34.55 18.1909 34.79C18.0576 35.03 17.9909 35.3033 17.9909 35.61C17.9909 35.9233 18.0576 36.2033 18.1909 36.45C18.3243 36.69 18.5076 36.88 18.7409 37.02C18.9743 37.16 19.2409 37.23 19.5409 37.23ZM23.035 38V33.25H23.935V38H23.035ZM23.935 35.29L23.595 35.14C23.595 34.5333 23.735 34.05 24.015 33.69C24.295 33.33 24.6983 33.15 25.225 33.15C25.465 33.15 25.6817 33.1933 25.875 33.28C26.0683 33.36 26.2483 33.4967 26.415 33.69L25.825 34.3C25.725 34.1933 25.615 34.1167 25.495 34.07C25.375 34.0233 25.235 34 25.075 34C24.7417 34 24.4683 34.1067 24.255 34.32C24.0417 34.5333 23.935 34.8567 23.935 35.29ZM27.0587 38V33.25H27.9587V38H27.0587ZM27.5087 32.3C27.342 32.3 27.2053 32.2467 27.0987 32.14C26.992 32.0267 26.9387 31.8867 26.9387 31.72C26.9387 31.56 26.992 31.4267 27.0987 31.32C27.2053 31.2067 27.342 31.15 27.5087 31.15C27.6753 31.15 27.812 31.2067 27.9187 31.32C28.0253 31.4267 28.0787 31.56 28.0787 31.72C28.0787 31.8867 28.0253 32.0267 27.9187 32.14C27.812 32.2467 27.6753 32.3 27.5087 32.3ZM30.015 38V31.26H30.915V38H30.015ZM28.845 34.07V33.25H32.085V34.07H28.845ZM35.0202 38.1C34.5468 38.1 34.1202 37.9933 33.7402 37.78C33.3602 37.56 33.0602 37.2633 32.8402 36.89C32.6202 36.5167 32.5102 36.0933 32.5102 35.62C32.5102 35.1533 32.6168 34.7333 32.8302 34.36C33.0502 33.9867 33.3435 33.6933 33.7102 33.48C34.0835 33.26 34.5002 33.15 34.9602 33.15C35.4002 33.15 35.7868 33.25 36.1202 33.45C36.4602 33.65 36.7235 33.9267 36.9102 34.28C37.1035 34.6333 37.2002 35.0333 37.2002 35.48C37.2002 35.5467 37.1968 35.62 37.1902 35.7C37.1835 35.7733 37.1702 35.86 37.1502 35.96H33.1402V35.21H36.6702L36.3402 35.5C36.3402 35.18 36.2835 34.91 36.1702 34.69C36.0568 34.4633 35.8968 34.29 35.6902 34.17C35.4835 34.0433 35.2335 33.98 34.9402 33.98C34.6335 33.98 34.3635 34.0467 34.1302 34.18C33.8968 34.3133 33.7168 34.5 33.5902 34.74C33.4635 34.98 33.4002 35.2633 33.4002 35.59C33.4002 35.9233 33.4668 36.2167 33.6002 36.47C33.7335 36.7167 33.9235 36.91 34.1702 37.05C34.4168 37.1833 34.7002 37.25 35.0202 37.25C35.2868 37.25 35.5302 37.2033 35.7502 37.11C35.9768 37.0167 36.1702 36.8767 36.3302 36.69L36.9102 37.28C36.6835 37.5467 36.4035 37.75 36.0702 37.89C35.7435 38.03 35.3935 38.1 35.0202 38.1ZM39.6915 38.1C39.4248 38.1 39.1715 38.0667 38.9315 38C38.6982 37.9267 38.4815 37.8267 38.2815 37.7C38.0815 37.5667 37.9082 37.41 37.7615 37.23L38.3415 36.65C38.5148 36.8633 38.7148 37.0233 38.9415 37.13C39.1682 37.23 39.4215 37.28 39.7015 37.28C39.9815 37.28 40.1982 37.2333 40.3515 37.14C40.5048 37.04 40.5815 36.9033 40.5815 36.73C40.5815 36.5567 40.5182 36.4233 40.3915 36.33C40.2715 36.23 40.1148 36.15 39.9215 36.09C39.7282 36.0233 39.5215 35.96 39.3015 35.9C39.0882 35.8333 38.8848 35.75 38.6915 35.65C38.4982 35.55 38.3382 35.4133 38.2115 35.24C38.0915 35.0667 38.0315 34.8367 38.0315 34.55C38.0315 34.2633 38.1015 34.0167 38.2415 33.81C38.3815 33.5967 38.5748 33.4333 38.8215 33.32C39.0748 33.2067 39.3782 33.15 39.7315 33.15C40.1048 33.15 40.4348 33.2167 40.7215 33.35C41.0148 33.4767 41.2548 33.67 41.4415 33.93L40.8615 34.51C40.7282 34.3367 40.5615 34.2033 40.3615 34.11C40.1682 34.0167 39.9482 33.97 39.7015 33.97C39.4415 33.97 39.2415 34.0167 39.1015 34.11C38.9682 34.1967 38.9015 34.32 38.9015 34.48C38.9015 34.64 38.9615 34.7633 39.0815 34.85C39.2015 34.9367 39.3582 35.01 39.5515 35.07C39.7515 35.13 39.9582 35.1933 40.1715 35.26C40.3848 35.32 40.5882 35.4033 40.7815 35.51C40.9748 35.6167 41.1315 35.76 41.2515 35.94C41.3782 36.12 41.4415 36.3567 41.4415 36.65C41.4415 37.0967 41.2815 37.45 40.9615 37.71C40.6482 37.97 40.2248 38.1 39.6915 38.1Z" fill="#151515"/>
<defs>
<clipPath id="clip0_39_1765">
<rect width="22" height="22" fill="white" transform="translate(11)"/>
</clipPath>
</defs>
</svg>
