<svg width="43" height="40" viewBox="0 0 43 40" fill="none" xmlns="http://www.w3.org/2000/svg">
<path d="M30.096 5.34998C29.11 4.14798 27.687 3.508 25.981 3.5C25.974 3.5 25.966 3.5 25.959 3.5C23.978 3.5 22.683 4.73703 22.001 5.84003C21.319 4.73703 20.024 3.5 18.043 3.5C18.035 3.5 18.027 3.5 18.021 3.5C16.317 3.508 14.895 4.14801 13.908 5.35101C12.677 6.85201 12.217 9.17397 12.679 11.561C13.888 17.792 21.472 21.309 21.794 21.456C21.859 21.486 21.931 21.501 22.001 21.501C22.071 21.501 22.1431 21.486 22.2081 21.456C22.5301 21.309 30.1141 17.793 31.3221 11.561C31.7851 9.17197 31.327 6.85098 30.096 5.34998ZM30.339 11.37C29.336 16.548 23.2111 19.84 22.0001 20.444C20.7891 19.84 14.6641 16.548 13.6601 11.37C13.2531 9.272 13.6341 7.25899 14.6801 5.98499C15.4831 5.00599 16.6081 4.507 18.0241 4.5C18.0311 4.5 18.037 4.5 18.044 4.5C20.6 4.5 21.49 7.03897 21.527 7.14697C21.664 7.55297 22.338 7.55297 22.474 7.14697C22.511 7.03897 23.4021 4.5 25.9571 4.5C25.9641 4.5 25.9701 4.5 25.9771 4.5C27.3951 4.507 28.521 5.00599 29.323 5.98499C30.3671 7.25699 30.747 9.271 30.339 11.37Z" fill="#6E6D6F"/>
<path d="M1.38 39V32.12H2.11V39H1.38ZM1.86 35.89V35.22H5.55V35.89H1.86ZM1.86 32.79V32.12H5.72V32.79H1.86ZM8.70898 39.1C8.26232 39.1 7.86232 38.9933 7.50898 38.78C7.15565 38.56 6.87565 38.2667 6.66898 37.9C6.46898 37.5333 6.36898 37.12 6.36898 36.66C6.36898 36.1933 6.46898 35.7767 6.66898 35.41C6.87565 35.0367 7.15565 34.7433 7.50898 34.53C7.86232 34.31 8.25898 34.2 8.69898 34.2C9.05898 34.2 9.37898 34.2733 9.65898 34.42C9.94565 34.56 10.1757 34.76 10.349 35.02C10.529 35.2733 10.639 35.57 10.679 35.91V37.38C10.639 37.72 10.529 38.02 10.349 38.28C10.1757 38.54 9.94565 38.7433 9.65898 38.89C9.37898 39.03 9.06232 39.1 8.70898 39.1ZM8.81898 38.43C9.30565 38.43 9.69565 38.2667 9.98898 37.94C10.289 37.6133 10.439 37.1833 10.439 36.65C10.439 36.2967 10.369 35.9867 10.229 35.72C10.0957 35.4467 9.90565 35.2367 9.65898 35.09C9.41898 34.9367 9.13565 34.86 8.80898 34.86C8.47565 34.86 8.17898 34.9367 7.91898 35.09C7.66565 35.2433 7.46232 35.4567 7.30898 35.73C7.16232 35.9967 7.08898 36.3033 7.08898 36.65C7.08898 36.9967 7.16232 37.3033 7.30898 37.57C7.46232 37.8367 7.66898 38.0467 7.92898 38.2C8.18898 38.3533 8.48565 38.43 8.81898 38.43ZM10.399 39V37.74L10.539 36.58L10.399 35.45V34.3H11.099V39H10.399ZM14.1586 39L11.9886 34.3H12.7686L14.5986 38.41H14.1586L15.9986 34.3H16.7586L14.5686 39H14.1586ZM19.5607 39.1C19.1074 39.1 18.694 38.99 18.3207 38.77C17.954 38.55 17.6607 38.2533 17.4407 37.88C17.2274 37.5067 17.1207 37.09 17.1207 36.63C17.1207 36.1767 17.2274 35.7667 17.4407 35.4C17.6607 35.0333 17.954 34.7433 18.3207 34.53C18.694 34.31 19.1074 34.2 19.5607 34.2C20.0207 34.2 20.434 34.3067 20.8007 34.52C21.1674 34.7333 21.4574 35.0267 21.6707 35.4C21.8907 35.7667 22.0007 36.1767 22.0007 36.63C22.0007 37.0967 21.8907 37.5167 21.6707 37.89C21.4574 38.2567 21.1674 38.55 20.8007 38.77C20.434 38.99 20.0207 39.1 19.5607 39.1ZM19.5607 38.42C19.894 38.42 20.1874 38.3433 20.4407 38.19C20.7007 38.0367 20.904 37.8233 21.0507 37.55C21.204 37.2767 21.2807 36.97 21.2807 36.63C21.2807 36.29 21.204 35.99 21.0507 35.73C20.904 35.4633 20.7007 35.2533 20.4407 35.1C20.1874 34.9467 19.894 34.87 19.5607 34.87C19.234 34.87 18.9407 34.9467 18.6807 35.1C18.4207 35.2533 18.2174 35.4633 18.0707 35.73C17.924 35.99 17.8507 36.29 17.8507 36.63C17.8507 36.9767 17.924 37.2867 18.0707 37.56C18.2174 37.8267 18.4207 38.0367 18.6807 38.19C18.9407 38.3433 19.234 38.42 19.5607 38.42ZM23.1143 39V34.3H23.8143V39H23.1143ZM23.8143 36.26L23.5243 36.13C23.5243 35.5367 23.6676 35.0667 23.9543 34.72C24.2476 34.3733 24.6476 34.2 25.1543 34.2C25.3876 34.2 25.601 34.2433 25.7943 34.33C25.9876 34.41 26.1676 34.54 26.3343 34.72L25.8743 35.21C25.761 35.0833 25.6343 34.9933 25.4943 34.94C25.361 34.8867 25.2076 34.86 25.0343 34.86C24.6743 34.86 24.381 34.98 24.1543 35.22C23.9276 35.4533 23.8143 35.8 23.8143 36.26ZM27.0791 39V34.3H27.7891V39H27.0791ZM27.4291 33.28C27.2958 33.28 27.1825 33.2333 27.0891 33.14C26.9958 33.04 26.9491 32.9233 26.9491 32.79C26.9491 32.65 26.9958 32.5333 27.0891 32.44C27.1825 32.3467 27.2958 32.3 27.4291 32.3C27.5758 32.3 27.6925 32.3467 27.7791 32.44C27.8725 32.5333 27.9191 32.65 27.9191 32.79C27.9191 32.9233 27.8725 33.04 27.7791 33.14C27.6925 33.2333 27.5758 33.28 27.4291 33.28ZM29.938 39V32.32H30.638V39H29.938ZM28.748 34.93V34.3H31.818V34.93H28.748ZM34.7863 39.1C34.3129 39.1 33.8896 38.9933 33.5163 38.78C33.1429 38.5667 32.8463 38.2733 32.6263 37.9C32.4129 37.5267 32.3063 37.1067 32.3063 36.64C32.3063 36.18 32.4129 35.7667 32.6263 35.4C32.8396 35.0267 33.1296 34.7333 33.4963 34.52C33.8629 34.3067 34.2729 34.2 34.7263 34.2C35.1529 34.2 35.5296 34.2967 35.8563 34.49C36.1896 34.6833 36.4496 34.9533 36.6363 35.3C36.8296 35.64 36.9263 36.0333 36.9263 36.48C36.9263 36.5333 36.9229 36.5967 36.9163 36.67C36.9096 36.7367 36.8963 36.8167 36.8763 36.91H32.8063V36.31H36.4963L36.2463 36.53C36.2529 36.1833 36.1929 35.8867 36.0663 35.64C35.9463 35.3867 35.7696 35.1933 35.5363 35.06C35.3096 34.92 35.0329 34.85 34.7063 34.85C34.3663 34.85 34.0696 34.9233 33.8163 35.07C33.5629 35.2167 33.3629 35.4233 33.2163 35.69C33.0763 35.95 33.0063 36.26 33.0063 36.62C33.0063 36.98 33.0796 37.2967 33.2262 37.57C33.3796 37.8433 33.5896 38.0567 33.8563 38.21C34.1296 38.3633 34.4429 38.44 34.7963 38.44C35.0829 38.44 35.3463 38.39 35.5863 38.29C35.8263 38.1833 36.0296 38.0267 36.1963 37.82L36.6463 38.28C36.4263 38.54 36.1529 38.7433 35.8263 38.89C35.5063 39.03 35.1596 39.1 34.7863 39.1ZM39.4371 39.1C39.1838 39.1 38.9404 39.0667 38.7071 39C38.4738 38.9267 38.2604 38.8267 38.0671 38.7C37.8804 38.5733 37.7171 38.4233 37.5771 38.25L38.0271 37.79C38.2138 38.0167 38.4238 38.1867 38.6571 38.3C38.8971 38.4067 39.1638 38.46 39.4571 38.46C39.7704 38.46 40.0138 38.4 40.1871 38.28C40.3671 38.16 40.4571 37.9933 40.4571 37.78C40.4571 37.58 40.3938 37.4233 40.2671 37.31C40.1404 37.1967 39.9771 37.1067 39.7771 37.04C39.5838 36.9733 39.3771 36.91 39.1571 36.85C38.9371 36.7833 38.7271 36.7033 38.5271 36.61C38.3271 36.51 38.1638 36.3733 38.0371 36.2C37.9171 36.0267 37.8571 35.8 37.8571 35.52C37.8571 35.2533 37.9204 35.0233 38.0471 34.83C38.1804 34.63 38.3671 34.4767 38.6071 34.37C38.8538 34.2567 39.1438 34.2 39.4771 34.2C39.8304 34.2 40.1504 34.2633 40.4371 34.39C40.7238 34.5167 40.9538 34.7033 41.1271 34.95L40.6771 35.4C40.5371 35.22 40.3604 35.0833 40.1471 34.99C39.9404 34.89 39.7071 34.84 39.4471 34.84C39.1471 34.84 38.9171 34.9 38.7571 35.02C38.6038 35.1333 38.5271 35.2833 38.5271 35.47C38.5271 35.65 38.5904 35.7933 38.7171 35.9C38.8438 36 39.0038 36.0833 39.1971 36.15C39.3971 36.21 39.6071 36.2733 39.8271 36.34C40.0471 36.4 40.2571 36.4833 40.4571 36.59C40.6571 36.69 40.8171 36.83 40.9371 37.01C41.0638 37.1833 41.1271 37.42 41.1271 37.72C41.1271 38.14 40.9738 38.4767 40.6671 38.73C40.3671 38.9767 39.9571 39.1 39.4371 39.1Z" fill="#6E6D6F"/>
</svg>
