<svg width="28" height="38" viewBox="0 0 28 38" fill="none" xmlns="http://www.w3.org/2000/svg">
<path d="M11.4199 19.3971V16.3582C11.4199 15.5824 12.0533 14.9535 12.8348 14.9535H15.6913C16.0665 14.9535 16.4264 15.1015 16.6917 15.365C16.9571 15.6284 17.1062 15.9856 17.1062 16.3582V19.3971C17.1038 19.7196 17.2312 20.0297 17.4601 20.2586C17.689 20.4875 18.0004 20.6162 18.3253 20.6162H20.2741C21.1843 20.6185 22.058 20.2612 22.7024 19.6231C23.3468 18.9851 23.709 18.1186 23.709 17.2151V8.5577C23.709 7.82783 23.3831 7.13549 22.8191 6.66722L16.1896 1.41097C15.0364 0.489367 13.384 0.519123 12.2653 1.48164L5.78699 6.66722C5.19637 7.12169 4.84337 7.81607 4.82593 8.5577V17.2062C4.82593 19.0895 6.36379 20.6162 8.26083 20.6162H10.1652C10.8399 20.6162 11.3883 20.0757 11.3932 19.4059L11.4199 19.3971Z" fill="#090A0C"/>
<path d="M1.60363 37V30.12H2.33363V37H1.60363ZM6.11363 37V30.12H6.84363V37H6.11363ZM2.08363 33.78V33.11H6.31363V33.78H2.08363ZM10.5656 37.1C10.1123 37.1 9.69892 36.99 9.32559 36.77C8.95892 36.55 8.66559 36.2533 8.44559 35.88C8.23225 35.5067 8.12559 35.09 8.12559 34.63C8.12559 34.1767 8.23225 33.7667 8.44559 33.4C8.66559 33.0333 8.95892 32.7433 9.32559 32.53C9.69892 32.31 10.1123 32.2 10.5656 32.2C11.0256 32.2 11.4389 32.3067 11.8056 32.52C12.1723 32.7333 12.4623 33.0267 12.6756 33.4C12.8956 33.7667 13.0056 34.1767 13.0056 34.63C13.0056 35.0967 12.8956 35.5167 12.6756 35.89C12.4623 36.2567 12.1723 36.55 11.8056 36.77C11.4389 36.99 11.0256 37.1 10.5656 37.1ZM10.5656 36.42C10.8989 36.42 11.1923 36.3433 11.4456 36.19C11.7056 36.0367 11.9089 35.8233 12.0556 35.55C12.2089 35.2767 12.2856 34.97 12.2856 34.63C12.2856 34.29 12.2089 33.99 12.0556 33.73C11.9089 33.4633 11.7056 33.2533 11.4456 33.1C11.1923 32.9467 10.8989 32.87 10.5656 32.87C10.2389 32.87 9.94559 32.9467 9.68559 33.1C9.42559 33.2533 9.22225 33.4633 9.07559 33.73C8.92892 33.99 8.85559 34.29 8.85559 34.63C8.85559 34.9767 8.92892 35.2867 9.07559 35.56C9.22225 35.8267 9.42559 36.0367 9.68559 36.19C9.94559 36.3433 10.2389 36.42 10.5656 36.42ZM14.1192 37V32.3H14.8192V37H14.1192ZM17.3492 37V34.12C17.3492 33.7333 17.2325 33.4267 16.9992 33.2C16.7658 32.9667 16.4725 32.85 16.1192 32.85C15.8792 32.85 15.6592 32.9033 15.4592 33.01C15.2658 33.11 15.1092 33.2533 14.9892 33.44C14.8758 33.6267 14.8192 33.85 14.8192 34.11L14.4992 33.98C14.4992 33.62 14.5792 33.3067 14.7392 33.04C14.8992 32.7733 15.1125 32.5667 15.3792 32.42C15.6525 32.2733 15.9592 32.2 16.2992 32.2C16.6325 32.2 16.9292 32.2733 17.1892 32.42C17.4558 32.5667 17.6658 32.7733 17.8192 33.04C17.9792 33.3067 18.0592 33.6233 18.0592 33.99V37H17.3492ZM20.5892 37V34.12C20.5892 33.7333 20.4725 33.4267 20.2392 33.2C20.0058 32.9667 19.7092 32.85 19.3492 32.85C19.1158 32.85 18.8992 32.9033 18.6992 33.01C18.5058 33.11 18.3492 33.2533 18.2292 33.44C18.1158 33.6267 18.0592 33.85 18.0592 34.11L17.6392 33.98C17.6592 33.62 17.7525 33.3067 17.9192 33.04C18.0925 32.7733 18.3158 32.5667 18.5892 32.42C18.8692 32.2733 19.1758 32.2 19.5092 32.2C19.8425 32.2 20.1425 32.2733 20.4092 32.42C20.6825 32.5667 20.8958 32.7733 21.0492 33.04C21.2092 33.3067 21.2892 33.6233 21.2892 33.99V37H20.5892ZM24.7755 37.1C24.3022 37.1 23.8788 36.9933 23.5055 36.78C23.1322 36.5667 22.8355 36.2733 22.6155 35.9C22.4022 35.5267 22.2955 35.1067 22.2955 34.64C22.2955 34.18 22.4022 33.7667 22.6155 33.4C22.8288 33.0267 23.1188 32.7333 23.4855 32.52C23.8522 32.3067 24.2622 32.2 24.7155 32.2C25.1422 32.2 25.5188 32.2967 25.8455 32.49C26.1788 32.6833 26.4388 32.9533 26.6255 33.3C26.8188 33.64 26.9155 34.0333 26.9155 34.48C26.9155 34.5333 26.9122 34.5967 26.9055 34.67C26.8988 34.7367 26.8855 34.8167 26.8655 34.91H22.7955V34.31H26.4855L26.2355 34.53C26.2422 34.1833 26.1822 33.8867 26.0555 33.64C25.9355 33.3867 25.7588 33.1933 25.5255 33.06C25.2988 32.92 25.0222 32.85 24.6955 32.85C24.3555 32.85 24.0588 32.9233 23.8055 33.07C23.5522 33.2167 23.3522 33.4233 23.2055 33.69C23.0655 33.95 22.9955 34.26 22.9955 34.62C22.9955 34.98 23.0688 35.2967 23.2155 35.57C23.3688 35.8433 23.5788 36.0567 23.8455 36.21C24.1188 36.3633 24.4322 36.44 24.7855 36.44C25.0722 36.44 25.3355 36.39 25.5755 36.29C25.8155 36.1833 26.0188 36.0267 26.1855 35.82L26.6355 36.28C26.4155 36.54 26.1422 36.7433 25.8155 36.89C25.4955 37.03 25.1488 37.1 24.7755 37.1Z" fill="#090A0C"/>
</svg>
