<svg width="33" height="33" viewBox="0 0 33 33" fill="none" xmlns="http://www.w3.org/2000/svg">
<path d="M28.1875 16.5C28.1875 16.8647 28.0426 17.2144 27.7848 17.4723C27.5269 17.7301 27.1772 17.875 26.8125 17.875H17.875V26.8125C17.875 27.1772 17.7301 27.5269 17.4723 27.7848C17.2144 28.0426 16.8647 28.1875 16.5 28.1875C16.1353 28.1875 15.7856 28.0426 15.5277 27.7848C15.2699 27.5269 15.125 27.1772 15.125 26.8125V17.875H6.1875C5.82283 17.875 5.47309 17.7301 5.21523 17.4723C4.95737 17.2144 4.8125 16.8647 4.8125 16.5C4.8125 16.1353 4.95737 15.7856 5.21523 15.5277C5.47309 15.2699 5.82283 15.125 6.1875 15.125H15.125V6.1875C15.125 5.82283 15.2699 5.47309 15.5277 5.21523C15.7856 4.95737 16.1353 4.8125 16.5 4.8125C16.8647 4.8125 17.2144 4.95737 17.4723 5.21523C17.7301 5.47309 17.875 5.82283 17.875 6.1875V15.125H26.8125C27.1772 15.125 27.5269 15.2699 27.7848 15.5277C28.0426 15.7856 28.1875 16.1353 28.1875 16.5Z" fill="white"/>
</svg>
