<svg width="30" height="38" viewBox="0 0 30 38" fill="none" xmlns="http://www.w3.org/2000/svg">
<path d="M14.2322 10.5C16.4382 10.5 18.2322 8.706 18.2322 6.5C18.2322 4.294 16.4382 2.5 14.2322 2.5C12.0262 2.5 10.2322 4.294 10.2322 6.5C10.2322 8.706 12.0262 10.5 14.2322 10.5ZM14.2322 3.5C15.8862 3.5 17.2322 4.846 17.2322 6.5C17.2322 8.154 15.8862 9.5 14.2322 9.5C12.5782 9.5 11.2322 8.154 11.2322 6.5C11.2322 4.846 12.5772 3.5 14.2322 3.5ZM16.2231 12.5H12.2231C8.16314 12.5 6.72314 15.473 6.72314 18.019C6.72314 20.296 7.9342 21.5 10.2262 21.5H18.2201C20.5121 21.5 21.7231 20.296 21.7231 18.019C21.7231 15.473 20.2831 12.5 16.2231 12.5ZM18.2201 20.5H10.2262C8.4952 20.5 7.72314 19.735 7.72314 18.019C7.72314 16.959 8.04714 13.5 12.2231 13.5H16.2231C20.5061 13.5 20.7231 17.264 20.7231 18.019C20.7231 19.735 19.9521 20.5 18.2201 20.5Z" fill="#7F7F7F"/>
<path d="M2.11172 34.24V33.59H4.14172C4.42172 33.59 4.67172 33.5333 4.89172 33.42C5.11839 33.3067 5.29505 33.1467 5.42172 32.94C5.55505 32.7267 5.62172 32.4733 5.62172 32.18C5.62172 31.8867 5.55505 31.6367 5.42172 31.43C5.29505 31.2167 5.11839 31.0533 4.89172 30.94C4.67172 30.82 4.42172 30.76 4.14172 30.76H2.11172V30.12H4.19172C4.60505 30.12 4.97505 30.2067 5.30172 30.38C5.62839 30.5467 5.88505 30.7833 6.07172 31.09C6.26505 31.3967 6.36172 31.76 6.36172 32.18C6.36172 32.5933 6.26505 32.9567 6.07172 33.27C5.88505 33.5767 5.62839 33.8167 5.30172 33.99C4.97505 34.1567 4.60505 34.24 4.19172 34.24H2.11172ZM1.64172 37V30.12H2.37172V37H1.64172ZM7.5557 37V32.3H8.2557V37H7.5557ZM8.2557 34.26L7.9657 34.13C7.9657 33.5367 8.10904 33.0667 8.3957 32.72C8.68904 32.3733 9.08904 32.2 9.5957 32.2C9.82904 32.2 10.0424 32.2433 10.2357 32.33C10.429 32.41 10.609 32.54 10.7757 32.72L10.3157 33.21C10.2024 33.0833 10.0757 32.9933 9.9357 32.94C9.80237 32.8867 9.64904 32.86 9.4757 32.86C9.1157 32.86 8.82237 32.98 8.5957 33.22C8.36904 33.4533 8.2557 33.8 8.2557 34.26ZM13.4845 37.1C13.0312 37.1 12.6179 36.99 12.2445 36.77C11.8779 36.55 11.5845 36.2533 11.3645 35.88C11.1512 35.5067 11.0445 35.09 11.0445 34.63C11.0445 34.1767 11.1512 33.7667 11.3645 33.4C11.5845 33.0333 11.8779 32.7433 12.2445 32.53C12.6179 32.31 13.0312 32.2 13.4845 32.2C13.9445 32.2 14.3579 32.3067 14.7245 32.52C15.0912 32.7333 15.3812 33.0267 15.5945 33.4C15.8145 33.7667 15.9245 34.1767 15.9245 34.63C15.9245 35.0967 15.8145 35.5167 15.5945 35.89C15.3812 36.2567 15.0912 36.55 14.7245 36.77C14.3579 36.99 13.9445 37.1 13.4845 37.1ZM13.4845 36.42C13.8179 36.42 14.1112 36.3433 14.3645 36.19C14.6245 36.0367 14.8279 35.8233 14.9745 35.55C15.1279 35.2767 15.2045 34.97 15.2045 34.63C15.2045 34.29 15.1279 33.99 14.9745 33.73C14.8279 33.4633 14.6245 33.2533 14.3645 33.1C14.1112 32.9467 13.8179 32.87 13.4845 32.87C13.1579 32.87 12.8645 32.9467 12.6045 33.1C12.3445 33.2533 12.1412 33.4633 11.9945 33.73C11.8479 33.99 11.7745 34.29 11.7745 34.63C11.7745 34.9767 11.8479 35.2867 11.9945 35.56C12.1412 35.8267 12.3445 36.0367 12.6045 36.19C12.8645 36.3433 13.1579 36.42 13.4845 36.42ZM17.5621 37V31.4C17.5621 31.0933 17.6288 30.8233 17.7621 30.59C17.8954 30.35 18.0788 30.1633 18.3121 30.03C18.5521 29.89 18.8288 29.82 19.1421 29.82C19.3754 29.82 19.5821 29.86 19.7621 29.94C19.9488 30.02 20.1188 30.1333 20.2721 30.28L19.8021 30.75C19.7088 30.6567 19.6054 30.59 19.4921 30.55C19.3854 30.5033 19.2654 30.48 19.1321 30.48C18.8588 30.48 18.6454 30.5667 18.4921 30.74C18.3454 30.9067 18.2721 31.1333 18.2721 31.42V37H17.5621ZM16.3821 32.93V32.3H20.7121V32.93H16.3821ZM20.3221 37V32.3H21.0321V37H20.3221ZM20.6721 31.72C20.5321 31.72 20.4154 31.6733 20.3221 31.58C20.2354 31.48 20.1921 31.3633 20.1921 31.23C20.1921 31.09 20.2354 30.9733 20.3221 30.88C20.4154 30.7867 20.5321 30.74 20.6721 30.74C20.8121 30.74 20.9288 30.7867 21.0221 30.88C21.1154 30.9733 21.1621 31.09 21.1621 31.23C21.1621 31.3633 21.1154 31.48 21.0221 31.58C20.9288 31.6733 20.8121 31.72 20.6721 31.72ZM22.4483 37V29.92H23.1483V37H22.4483ZM26.7374 37.1C26.2641 37.1 25.8408 36.9933 25.4674 36.78C25.0941 36.5667 24.7974 36.2733 24.5774 35.9C24.3641 35.5267 24.2574 35.1067 24.2574 34.64C24.2574 34.18 24.3641 33.7667 24.5774 33.4C24.7908 33.0267 25.0808 32.7333 25.4474 32.52C25.8141 32.3067 26.2241 32.2 26.6774 32.2C27.1041 32.2 27.4808 32.2967 27.8074 32.49C28.1408 32.6833 28.4008 32.9533 28.5874 33.3C28.7808 33.64 28.8774 34.0333 28.8774 34.48C28.8774 34.5333 28.8741 34.5967 28.8674 34.67C28.8608 34.7367 28.8474 34.8167 28.8274 34.91H24.7574V34.31H28.4474L28.1974 34.53C28.2041 34.1833 28.1441 33.8867 28.0174 33.64C27.8974 33.3867 27.7208 33.1933 27.4874 33.06C27.2608 32.92 26.9841 32.85 26.6574 32.85C26.3174 32.85 26.0208 32.9233 25.7674 33.07C25.5141 33.2167 25.3141 33.4233 25.1674 33.69C25.0274 33.95 24.9574 34.26 24.9574 34.62C24.9574 34.98 25.0308 35.2967 25.1774 35.57C25.3308 35.8433 25.5408 36.0567 25.8074 36.21C26.0808 36.3633 26.3941 36.44 26.7474 36.44C27.0341 36.44 27.2974 36.39 27.5374 36.29C27.7774 36.1833 27.9808 36.0267 28.1474 35.82L28.5974 36.28C28.3774 36.54 28.1041 36.7433 27.7774 36.89C27.4574 37.03 27.1108 37.1 26.7374 37.1Z" fill="#6E6D6F"/>
</svg>
