<svg width="22" height="22" viewBox="0 0 22 22" fill="none" xmlns="http://www.w3.org/2000/svg">
<path d="M15.8125 13.7499C15.2979 13.7525 14.7905 13.8706 14.3276 14.0955C13.8647 14.3204 13.4582 14.6463 13.1382 15.0493L8.11254 11.9074C8.2957 11.3163 8.2957 10.6835 8.11254 10.0924L13.1382 6.95052C13.6482 7.58214 14.3654 8.01283 15.1627 8.1663C15.9599 8.31977 16.7857 8.18612 17.4938 7.78901C18.202 7.39191 18.7467 6.75699 19.0315 5.99672C19.3163 5.23645 19.3228 4.39991 19.0499 3.63528C18.777 2.87066 18.2423 2.2273 17.5405 1.81918C16.8386 1.41106 16.015 1.26452 15.2155 1.40551C14.4159 1.54651 13.6921 1.96595 13.1722 2.58952C12.6523 3.21309 12.3699 4.00054 12.375 4.8124C12.3783 5.11983 12.4246 5.4253 12.5125 5.7199L7.48691 8.86177C7.04323 8.30323 6.43678 7.89655 5.75163 7.69811C5.06647 7.49966 4.33655 7.51927 3.66304 7.75422C2.98953 7.98917 2.4058 8.42782 1.99274 9.00938C1.57969 9.59093 1.35779 10.2866 1.35779 10.9999C1.35779 11.7132 1.57969 12.4089 1.99274 12.9904C2.4058 13.572 2.98953 14.0106 3.66304 14.2456C4.33655 14.4805 5.06647 14.5001 5.75163 14.3017C6.43678 14.1032 7.04323 13.6966 7.48691 13.138L12.5125 16.2799C12.4246 16.5745 12.3783 16.88 12.375 17.1874C12.375 17.8673 12.5766 18.5319 12.9544 19.0972C13.3321 19.6625 13.8689 20.1031 14.4971 20.3632C15.1252 20.6234 15.8163 20.6915 16.4832 20.5588C17.15 20.4262 17.7625 20.0988 18.2432 19.6181C18.724 19.1373 19.0513 18.5248 19.184 17.858C19.3166 17.1912 19.2485 16.5 18.9884 15.8719C18.7282 15.2438 18.2876 14.7069 17.7223 14.3292C17.157 13.9515 16.4924 13.7499 15.8125 13.7499ZM15.8125 2.7499C16.2205 2.7499 16.6192 2.87086 16.9584 3.09749C17.2976 3.32412 17.5619 3.64624 17.718 4.02311C17.8741 4.39998 17.915 4.81468 17.8354 5.21477C17.7558 5.61486 17.5594 5.98236 17.2709 6.2708C16.9825 6.55925 16.615 6.75568 16.2149 6.83527C15.8148 6.91485 15.4001 6.874 15.0233 6.7179C14.6464 6.56179 14.3243 6.29744 14.0976 5.95826C13.871 5.61908 13.75 5.22032 13.75 4.8124C13.75 4.26539 13.9673 3.74078 14.3541 3.35399C14.7409 2.96719 15.2655 2.7499 15.8125 2.7499ZM4.81254 13.0624C4.40461 13.0624 4.00585 12.9414 3.66667 12.7148C3.32749 12.4882 3.06314 12.1661 2.90703 11.7892C2.75093 11.4123 2.71008 10.9976 2.78967 10.5975C2.86925 10.1974 3.06568 9.82993 3.35413 9.54149C3.64257 9.25304 4.01008 9.05661 4.41016 8.97703C4.81025 8.89744 5.22495 8.93829 5.60182 9.09439C5.97869 9.2505 6.30081 9.51486 6.52744 9.85403C6.75407 10.1932 6.87504 10.592 6.87504 10.9999C6.87504 11.5469 6.65774 12.0715 6.27094 12.4583C5.88415 12.8451 5.35954 13.0624 4.81254 13.0624ZM15.8125 19.2499C15.4046 19.2499 15.0058 19.1289 14.6667 18.9023C14.3275 18.6757 14.0631 18.3536 13.907 17.9767C13.7509 17.5998 13.7101 17.1851 13.7897 16.785C13.8692 16.3849 14.0657 16.0174 14.3541 15.729C14.6426 15.4405 15.0101 15.2441 15.4102 15.1645C15.8102 15.0849 16.2249 15.1258 16.6018 15.2819C16.9787 15.438 17.3008 15.7024 17.5274 16.0415C17.7541 16.3807 17.875 16.7795 17.875 17.1874C17.875 17.7344 17.6577 18.259 17.2709 18.6458C16.8841 19.0326 16.3595 19.2499 15.8125 19.2499Z" fill="white"/>
</svg>
