<svg width="20" height="20" viewBox="0 0 20 20" fill="none" xmlns="http://www.w3.org/2000/svg">
<path d="M19 3.5H15.441C14.36 3.5 14.274 3.24201 14.018 2.47501L13.815 1.868C13.543 1.05 12.78 0.5 11.918 0.5H8.08C7.218 0.5 6.455 1.05 6.183 1.868L5.981 2.47501C5.725 3.24201 5.639 3.5 4.558 3.5H1C0.724 3.5 0.5 3.724 0.5 4C0.5 4.276 0.724 4.5 1 4.5H2.532L3.314 16.232C3.453 18.309 4.725 19.5 6.806 19.5H13.193C15.274 19.5 16.547 18.309 16.685 16.232L17.467 4.5H19C19.276 4.5 19.5 4.276 19.5 4C19.5 3.724 19.276 3.5 19 3.5ZM7.132 2.18401C7.269 1.77501 7.64999 1.5 8.08099 1.5H11.919C12.35 1.5 12.731 1.77401 12.867 2.18401L13.07 2.791C13.151 3.033 13.237 3.275 13.355 3.5H6.646C6.764 3.274 6.85 3.033 6.931 2.791L7.132 2.18401ZM15.688 16.166C15.585 17.715 14.746 18.5 13.194 18.5H6.80701C5.25501 18.5 4.416 17.715 4.313 16.166L3.535 4.5H4.559C4.683 4.5 4.784 4.486 4.894 4.479C4.929 4.487 4.963 4.5 5 4.5H15C15.038 4.5 15.071 4.486 15.106 4.479C15.216 4.487 15.317 4.5 15.441 4.5H16.465L15.688 16.166ZM12.5 9V14C12.5 14.276 12.276 14.5 12 14.5C11.724 14.5 11.5 14.276 11.5 14V9C11.5 8.724 11.724 8.5 12 8.5C12.276 8.5 12.5 8.724 12.5 9ZM8.5 9V14C8.5 14.276 8.276 14.5 8 14.5C7.724 14.5 7.5 14.276 7.5 14V9C7.5 8.724 7.724 8.5 8 8.5C8.276 8.5 8.5 8.724 8.5 9Z" fill="#FF0004"/>
</svg>
