<svg width="24" height="25" viewBox="0 0 24 25" fill="none" xmlns="http://www.w3.org/2000/svg">
<mask id="mask0_12_2279" style="mask-type:luminance" maskUnits="userSpaceOnUse" x="2" y="2" width="20" height="21">
<path fill-rule="evenodd" clip-rule="evenodd" d="M2.00049 2.50024H21.9601V22.45H2.00049V2.50024Z" fill="white"/>
</mask>
<g mask="url(#mask0_12_2279)">
<path fill-rule="evenodd" clip-rule="evenodd" d="M7.65049 4C5.12949 4 3.50049 5.727 3.50049 8.399V16.551C3.50049 19.224 5.12949 20.95 7.65049 20.95H16.3005C18.8275 20.95 20.4605 19.224 20.4605 16.551V8.399C20.4605 5.727 18.8275 4 16.3005 4H7.65049ZM16.3005 22.45H7.65049C4.27049 22.45 2.00049 20.079 2.00049 16.551V8.399C2.00049 4.871 4.27049 2.5 7.65049 2.5H16.3005C19.6855 2.5 21.9605 4.871 21.9605 8.399V16.551C21.9605 20.079 19.6855 22.45 16.3005 22.45Z" fill="#A3A3A3"/>
</g>
<path fill-rule="evenodd" clip-rule="evenodd" d="M5.2815 17.6805C5.0955 17.6805 4.9105 17.6125 4.7655 17.4745C4.4645 17.1905 4.4525 16.7145 4.7375 16.4155L6.2655 14.8025C7.0745 13.9435 8.4395 13.9015 9.3025 14.7115L10.2605 15.6835C10.5275 15.9535 10.9615 15.9585 11.2295 15.6945C11.3305 15.5755 13.5085 12.9305 13.5085 12.9305C13.9225 12.4285 14.5065 12.1185 15.1555 12.0545C15.8055 11.9975 16.4365 12.1865 16.9395 12.5995C16.9825 12.6345 17.0215 12.6685 19.2175 14.9235C19.5065 15.2195 19.5015 15.6945 19.2045 15.9835C18.9085 16.2745 18.4325 16.2655 18.1435 15.9695C18.1435 15.9695 16.0945 13.8665 15.9485 13.7245C15.7935 13.5975 15.5445 13.5235 15.2995 13.5475C15.0505 13.5725 14.8265 13.6915 14.6675 13.8845C12.3435 16.7035 12.3155 16.7305 12.2775 16.7675C11.4195 17.6095 10.0345 17.5955 9.1915 16.7355C9.1915 16.7355 8.2615 15.7915 8.2455 15.7725C8.0145 15.5585 7.6025 15.5725 7.3555 15.8335L5.8255 17.4465C5.6775 17.6025 5.4795 17.6805 5.2815 17.6805Z" fill="#A3A3A3"/>
<path fill-rule="evenodd" clip-rule="evenodd" d="M8.55769 8.62891C8.00469 8.62891 7.55469 9.07891 7.55469 9.63291C7.55469 10.1869 8.00469 10.6379 8.55869 10.6379C9.11269 10.6379 9.56369 10.1869 9.56369 9.63291C9.56369 9.07991 9.11269 8.62991 8.55769 8.62891ZM8.55869 12.1379C7.17769 12.1379 6.05469 11.0139 6.05469 9.63291C6.05469 8.25191 7.17769 7.12891 8.55869 7.12891C9.94069 7.12991 11.0637 8.25391 11.0637 9.63291C11.0637 11.0139 9.93969 12.1379 8.55869 12.1379Z" fill="#A3A3A3"/>
</svg>
