<svg width="23" height="23" viewBox="0 0 23 23" fill="none" xmlns="http://www.w3.org/2000/svg">
<path fill-rule="evenodd" clip-rule="evenodd" d="M11.5 1.86365C10.5114 1.86365 9.56337 2.25634 8.86438 2.95534C8.16538 3.65434 7.77268 4.60239 7.77268 5.59092V10.25C7.77268 11.2385 8.16538 12.1866 8.86438 12.8856C9.56337 13.5846 10.5114 13.9773 11.5 13.9773C12.4885 13.9773 13.4365 13.5846 14.1355 12.8856C14.8345 12.1866 15.2272 11.2385 15.2272 10.25V5.59092C15.2272 4.60239 14.8345 3.65434 14.1355 2.95534C13.4365 2.25634 12.4885 1.86365 11.5 1.86365ZM4.97723 9.31819C5.22436 9.31819 5.46137 9.41637 5.63612 9.59112C5.81087 9.76587 5.90905 10.0029 5.90905 10.25C5.90905 11.7328 6.49809 13.1549 7.54659 14.2034C8.59508 15.2519 10.0172 15.8409 11.5 15.8409C12.9828 15.8409 14.4048 15.2519 15.4533 14.2034C16.5018 13.1549 17.0909 11.7328 17.0909 10.25C17.0909 10.0029 17.189 9.76587 17.3638 9.59112C17.5385 9.41637 17.7755 9.31819 18.0227 9.31819C18.2698 9.31819 18.5068 9.41637 18.6816 9.59112C18.8563 9.76587 18.9545 10.0029 18.9545 10.25C18.9545 12.0658 18.2918 13.8191 17.0909 15.181C15.8899 16.5428 14.2333 17.4196 12.4318 17.6468V19.5682C12.4318 19.8153 12.3336 20.0523 12.1588 20.2271C11.9841 20.4018 11.7471 20.5 11.5 20.5C11.2528 20.5 11.0158 20.4018 10.8411 20.2271C10.6663 20.0523 10.5681 19.8153 10.5681 19.5682V17.6468C8.76665 17.4196 7.10999 16.5428 5.90905 15.181C4.70811 13.8191 4.04544 12.0658 4.04541 10.25C4.04541 10.0029 4.14358 9.76587 4.31833 9.59112C4.49308 9.41637 4.73009 9.31819 4.97723 9.31819Z" fill="#003775"/>
</svg>
